<?xml version="1.0" encoding="UTF-8"?>
<!DOCTYPE svg PUBLIC "-//W3C//DTD SVG 1.1//EN" "http://www.w3.org/Graphics/SVG/1.1/DTD/svg11.dtd">
<!-- Creator: CorelDRAW X5 -->
<svg xmlns="http://www.w3.org/2000/svg" xml:space="preserve" width="2048px" height="2048px" style="shape-rendering:geometricPrecision; text-rendering:geometricPrecision; image-rendering:optimizeQuality; fill-rule:evenodd; clip-rule:evenodd"
viewBox="0 0 2048 2048"
 xmlns:xlink="http://www.w3.org/1999/xlink">
 <defs>
  <style type="text/css">
   <![CDATA[
    .fil9 {fill:none}
    .fil10 {fill:#212121}
    .fil4 {fill:#757575}
    .fil8 {fill:#81D4FA}
    .fil5 {fill:#0277BD;fill-rule:nonzero}
    .fil6 {fill:#0288D1;fill-rule:nonzero}
    .fil7 {fill:#039BE5;fill-rule:nonzero}
    .fil1 {fill:#3C3C3C;fill-rule:nonzero}
    .fil0 {fill:#424242;fill-rule:nonzero}
    .fil2 {fill:#B30606;fill-rule:nonzero}
    .fil3 {fill:#D50000;fill-rule:nonzero}
   ]]>
  </style>
 </defs>
 <g id="Layer_x0020_1">
  <metadata id="CorelCorpID_0Corel-Layer"/>
  <g id="_353062648">
   <path class="fil0" d="M1189 1266l89 0 155 -124 52 -42 0 67 0 261 0 0 0 262 0 67 -52 -42 -155 -124 -89 0c-17,0 -33,-7 -44,-18 -11,-11 -18,-27 -18,-44l0 -100 0 -1 0 -99c0,-17 7,-33 18,-44 11,-11 27,-18 44,-18z"/>
   <path class="fil1" d="M1485 1429l0 262 0 67 -52 -42 -155 -124 -89 0c-17,0 -33,-7 -44,-18 -11,-11 -18,-27 -18,-44l0 -100 358 0z"/>
   <polygon class="fil2" points="1485,1429 1485,1691 1485,1757 1433,1716 1279,1592 1278,1592 1278,1592 1278,1429 "/>
   <path class="fil3" d="M1278 1266l1 0 0 0 154 -124 30 -24c7,-6 15,-12 22,-18l0 30 0 37 0 261 0 0 -207 0 0 -1 0 -162z"/>
  </g>
  <path class="fil4" d="M1465 296l231 150c9,6 15,15 17,25 2,10 0,21 -6,30l-280 430c-6,9 -15,15 -25,17 -10,2 -21,0 -30,-6l-231 -150c-9,-6 -15,-15 -17,-25 -2,-10 0,-21 6,-30l280 -430c6,-9 15,-15 25,-17 10,-2 21,0 30,6zm176 190l-191 -124 -216 333 191 124 216 -333zm-352 282l49 32 -32 49 -49 -32 32 -49z"/>
  <g id="_333024240">
   <path class="fil0" d="M319 456l89 0 155 -124 52 -42 0 67 0 261 0 0 0 262 0 67 -52 -42 -155 -124 -89 0c-17,0 -33,-7 -44,-18 -11,-11 -18,-27 -18,-44l0 -100 0 -1 0 -99c0,-17 7,-33 18,-44 11,-11 27,-18 44,-18z"/>
   <path class="fil1" d="M614 619l0 262 0 67 -52 -42 -155 -124 -89 0c-17,0 -33,-7 -44,-18 -11,-11 -18,-27 -18,-44l0 -100 358 0z"/>
   <polygon class="fil2" points="614,619 614,881 614,947 562,906 408,782 407,782 407,782 407,619 "/>
   <path class="fil3" d="M407 456l1 0 0 0 154 -124 30 -24c7,-6 15,-12 22,-18l0 30 0 37 0 261 0 0 -207 0 0 -1 0 -162z"/>
   <path class="fil5" d="M857 971c-12,13 -32,14 -45,3 -13,-12 -14,-32 -3,-45 37,-42 66,-89 85,-140 19,-51 30,-106 30,-161 0,-59 -12,-117 -34,-171 -22,-54 -54,-104 -96,-146 -12,-13 -12,-33 1,-45 13,-12 33,-12 45,1 47,48 84,105 109,166 25,61 38,128 38,195 0,63 -12,125 -34,184 -22,58 -55,113 -97,160z"/>
   <path class="fil6" d="M758 858c-11,14 -31,16 -45,5 -14,-11 -16,-31 -5,-45 21,-27 38,-57 49,-89 11,-32 17,-65 17,-100 0,-39 -7,-77 -21,-113 -14,-35 -35,-68 -62,-96 -12,-13 -12,-33 1,-45 13,-12 33,-12 45,1 32,34 58,74 75,117 17,43 26,89 26,136 0,41 -7,82 -20,121 -13,38 -33,75 -59,107z"/>
  </g>
  <g id="_333023616">
   <path class="fil0" d="M319 1266l89 0 155 -124 52 -42 0 67 0 261 0 0 0 262 0 67 -52 -42 -155 -124 -89 0c-17,0 -33,-7 -44,-18 -11,-11 -18,-27 -18,-44l0 -100 0 -1 0 -99c0,-17 7,-33 18,-44 11,-11 27,-18 44,-18z"/>
   <path class="fil1" d="M614 1429l0 262 0 67 -52 -42 -155 -124 -89 0c-17,0 -33,-7 -44,-18 -11,-11 -18,-27 -18,-44l0 -100 358 0z"/>
   <polygon class="fil2" points="614,1429 614,1691 614,1757 562,1716 408,1592 407,1592 407,1592 407,1429 "/>
   <path class="fil3" d="M407 1266l1 0 0 0 154 -124 30 -24c7,-6 15,-12 22,-18l0 30 0 37 0 261 0 0 -207 0 0 -1 0 -162z"/>
  </g>
  <path class="fil3" d="M1529 1359c-12,-12 -12,-33 0,-45 12,-12 33,-12 45,0l70 70 70 -70c12,-12 33,-12 45,0 12,12 12,33 0,45l-70 70 70 70c12,12 12,33 0,45 -12,12 -33,12 -45,0l-70 -70 -70 70c-12,12 -33,12 -45,0 -12,-12 -12,-33 0,-45l70 -70 -70 -70z"/>
  <path class="fil5" d="M935 1781c-12,13 -32,14 -45,3 -13,-12 -14,-32 -3,-45 37,-42 66,-89 85,-140 19,-51 30,-106 30,-161 0,-59 -12,-117 -34,-171 -22,-54 -54,-104 -96,-146 -12,-13 -12,-33 1,-45 13,-12 33,-12 45,1 47,48 84,105 109,166 25,61 38,128 38,195 0,63 -12,125 -34,184 -22,58 -55,113 -97,160z"/>
  <path class="fil6" d="M810 1668c-11,14 -31,16 -45,5 -14,-11 -16,-31 -5,-45 21,-27 38,-57 49,-89 11,-32 17,-65 17,-100 0,-39 -7,-77 -21,-113 -14,-35 -35,-68 -62,-96 -12,-13 -12,-33 1,-45 13,-12 33,-12 45,1 32,34 58,74 75,117 17,43 26,89 26,136 0,41 -7,82 -20,121 -13,38 -33,75 -59,107z"/>
  <path class="fil7" d="M729 1541c-11,14 -31,16 -45,5 -14,-11 -16,-31 -5,-45 8,-10 14,-21 18,-32 4,-11 6,-23 6,-36 0,-14 -3,-28 -8,-41 -5,-13 -13,-25 -22,-35 -12,-13 -12,-33 1,-45 13,-12 33,-12 45,1 15,16 27,35 35,55 8,20 12,42 12,64 0,19 -3,39 -10,57 -6,18 -16,35 -28,51z"/>
  <path class="fil0" d="M1304 324c10,-15 29,-19 44,-9 15,10 19,29 9,44l-144 222c-10,15 -29,19 -44,9 -15,-10 -19,-29 -9,-44l144 -222z"/>
  <path class="fil0" d="M1223 303c10,-15 29,-19 44,-9 15,10 19,29 9,44l-115 177c-10,15 -29,19 -44,9 -15,-10 -19,-29 -9,-44l115 -177z"/>
  <path class="fil0" d="M1681 569c10,-15 29,-19 44,-9 15,10 19,29 9,44l-144 222c-10,15 -29,19 -44,9 -15,-10 -19,-29 -9,-44l144 -222z"/>
  <path class="fil0" d="M1733 635c10,-15 29,-19 44,-9 15,10 19,29 9,44l-115 177c-10,15 -29,19 -44,9 -15,-10 -19,-29 -9,-44l115 -177z"/>
  <polygon class="fil8" points="1450,363 1234,695 1425,819 1641,486 "/>
  <rect class="fil9" width="2048" height="2048"/>
  <polygon class="fil10" points="1288,768 1256,817 1306,849 1338,800 "/>
  <rect class="fil9" width="2048" height="2048"/>
 </g>
</svg>
