<?xml version="1.0" encoding="utf-8"?>
<!-- Generator: Adobe Illustrator 24.3.0, SVG Export Plug-In . SVG Version: 6.00 Build 0)  -->
<svg version="1.1" id="Layer_1" xmlns="http://www.w3.org/2000/svg" xmlns:xlink="http://www.w3.org/1999/xlink" x="0px" y="0px"
	 viewBox="0 0 180 180" enable-background="new 0 0 180 180" xml:space="preserve">
<g>
	<g id="XMLID_3024_">
		<path fill="#FFDB76" d="M154.622,89.998c0,35.691-28.933,64.625-64.623,64.625c-35.689,0-64.622-28.934-64.622-64.625
			c0-35.687,28.932-64.621,64.622-64.621C125.689,25.377,154.622,54.311,154.622,89.998z"/>
	</g>
	<g>
		<g>
			<g id="XMLID_3021_">
				<g>
					<path fill="#FFFFFF" d="M109.295,93.246c0,10.656-8.638,19.295-19.296,19.295c-10.656,0-19.295-8.639-19.295-19.295
						c0-10.658,8.64-19.297,19.295-19.297C100.657,73.949,109.295,82.588,109.295,93.246z"/>
				</g>
			</g>
			<g id="XMLID_3020_">
				<g>
					<path fill="#333333" d="M89.999,111.227c-0.39,0-0.783-0.012-1.171-0.037l0.049-0.766c0.621,0.039,1.253,0.047,1.878,0.02
						l0.033,0.768C90.526,111.223,90.261,111.227,89.999,111.227z M92.739,111.02l-0.116-0.758c0.617-0.096,1.235-0.225,1.837-0.385
						l0.198,0.74C94.029,110.785,93.383,110.922,92.739,111.02z M86.882,110.957c-0.643-0.111-1.285-0.26-1.91-0.441l0.214-0.738
						c0.598,0.174,1.213,0.318,1.828,0.424L86.882,110.957z M96.521,110.008l-0.279-0.715c0.58-0.227,1.156-0.488,1.709-0.777
						l0.354,0.682C97.728,109.498,97.127,109.771,96.521,110.008z M83.122,109.865c-0.602-0.25-1.197-0.535-1.769-0.85l0.37-0.672
						c0.546,0.301,1.116,0.574,1.692,0.812L83.122,109.865z M99.992,108.197l-0.428-0.637c0.519-0.348,1.023-0.729,1.5-1.129
						l0.494,0.588C101.06,107.439,100.533,107.834,99.992,108.197z M79.689,107.98c-0.533-0.375-1.052-0.783-1.541-1.211
						l0.506-0.578c0.469,0.412,0.966,0.801,1.476,1.16L79.689,107.98z M102.99,105.68l-0.555-0.531
						c0.431-0.451,0.842-0.93,1.223-1.426l0.608,0.469C103.87,104.709,103.44,105.209,102.99,105.68z M76.746,105.398
						c-0.441-0.48-0.86-0.99-1.245-1.514l0.619-0.455c0.369,0.502,0.769,0.988,1.192,1.449L76.746,105.398z M105.375,102.574
						l-0.656-0.398c0.324-0.533,0.623-1.09,0.885-1.654l0.696,0.324C106.025,101.436,105.713,102.018,105.375,102.574z
						 M74.428,102.244c-0.327-0.564-0.626-1.152-0.888-1.748l0.703-0.309c0.251,0.568,0.537,1.131,0.85,1.672L74.428,102.244z
						 M107.032,99.025l-0.728-0.246c0.201-0.59,0.37-1.199,0.504-1.807l0.75,0.164C107.419,97.771,107.242,98.408,107.032,99.025z
						 M72.848,98.662c-0.196-0.621-0.36-1.262-0.486-1.9l0.753-0.148c0.122,0.611,0.277,1.223,0.465,1.818L72.848,98.662z
						 M107.877,95.203l-0.764-0.082c0.066-0.619,0.1-1.248,0.1-1.875h0.769C107.982,93.9,107.946,94.559,107.877,95.203z
						 M72.086,94.822c-0.045-0.52-0.068-1.051-0.068-1.576c0-0.127,0.001-0.256,0.003-0.383l0.768,0.016
						c-0.003,0.123-0.004,0.244-0.004,0.367c0,0.504,0.021,1.012,0.065,1.51L72.086,94.822z M107.176,92.1
						c-0.041-0.623-0.117-1.248-0.224-1.861l0.756-0.135c0.113,0.641,0.191,1.295,0.234,1.947L107.176,92.1z M72.93,91.008
						l-0.761-0.1c0.084-0.645,0.204-1.295,0.358-1.926l0.746,0.182C73.126,89.77,73.01,90.389,72.93,91.008z M106.525,88.41
						c-0.174-0.598-0.384-1.193-0.624-1.77l0.71-0.295c0.25,0.602,0.47,1.225,0.651,1.85L106.525,88.41z M73.816,87.365
						l-0.721-0.262c0.223-0.611,0.481-1.219,0.769-1.803l0.689,0.34C74.277,86.199,74.029,86.779,73.816,87.365z M105.087,84.951
						c-0.3-0.545-0.635-1.08-0.994-1.592l0.629-0.441c0.375,0.533,0.724,1.094,1.038,1.662L105.087,84.951z M75.475,84.006
						l-0.648-0.414c0.349-0.549,0.733-1.084,1.142-1.594l0.599,0.482C76.177,82.967,75.809,83.48,75.475,84.006z M102.932,81.885
						c-0.413-0.469-0.854-0.92-1.314-1.34l0.519-0.566c0.479,0.439,0.941,0.91,1.372,1.4L102.932,81.885z M77.821,81.082
						l-0.543-0.543c0.461-0.463,0.951-0.902,1.458-1.31l0.481,0.598C78.732,80.217,78.262,80.639,77.821,81.082z M100.167,79.354
						c-0.503-0.369-1.032-0.713-1.572-1.025l0.384-0.666c0.564,0.326,1.117,0.688,1.642,1.072L100.167,79.354z M80.741,78.732
						l-0.414-0.649c0.549-0.351,1.123-0.674,1.706-0.963l0.34,0.688C81.816,78.084,81.266,78.396,80.741,78.732z M96.92,77.48
						c-0.57-0.25-1.162-0.473-1.757-0.66l0.23-0.732c0.623,0.195,1.24,0.426,1.836,0.688L96.92,77.48z M84.099,77.07l-0.263-0.723
						c0.612-0.223,1.244-0.414,1.876-0.568l0.183,0.746C85.289,76.674,84.685,76.855,84.099,77.07z M93.345,76.355
						c-0.61-0.119-1.236-0.207-1.859-0.26l0.066-0.766c0.65,0.057,1.303,0.149,1.94,0.274L93.345,76.355z M87.739,76.18l-0.1-0.762
						c0.645-0.084,1.302-0.135,1.954-0.148l0.017,0.768C88.986,76.051,88.356,76.098,87.739,76.18z"/>
				</g>
			</g>
			<g>
				<g>
					<path fill="#FFDB76" d="M93.621,103.004c0,2.293-1.858,4.152-4.152,4.152c-2.293,0-4.152-1.859-4.152-4.152
						c0-2.293,1.859-4.152,4.152-4.152C91.762,98.852,93.621,100.711,93.621,103.004z"/>
				</g>
				<g>
					<path fill="#AF865D" d="M91.227,96.242h-3.515c-0.775,0-1.405,0.629-1.405,1.404c0,0,0.003,5.203,0.008,5.254
						c0.086,1.668,1.463,2.998,3.154,2.998c1.691,0,3.068-1.33,3.154-2.998c0.005-0.051,0.009-5.254,0.009-5.254
						C92.632,96.871,92.002,96.242,91.227,96.242z"/>
				</g>
				<g>
					<g>
						<path fill="#333333" d="M96.662,92.152v-6.141c0-2.67-2.273-4.836-5.078-4.836h-4.231c-2.804,0-5.078,2.166-5.078,4.836v6.141
							H96.662z"/>
					</g>
				</g>
				<g>
					<g>
						<path fill="#AF865D" d="M95.731,92.324c0,0.268,0.217,0.484,0.484,0.484l0,0c0.267,0,0.484-0.217,0.484-0.484v-1.623
							c0-0.268-0.217-0.484-0.484-0.484l0,0c-0.267,0-0.484,0.217-0.484,0.484V92.324z"/>
					</g>
				</g>
				<g>
					<g>
						<path fill="#AF865D" d="M82.239,92.324c0,0.268,0.216,0.484,0.484,0.484l0,0c0.267,0,0.484-0.217,0.484-0.484v-1.623
							c0-0.268-0.217-0.484-0.484-0.484l0,0c-0.268,0-0.484,0.217-0.484,0.484V92.324z"/>
					</g>
				</g>
				<g>
					<g>
						<path fill="#DFBF9B" d="M95.731,95.154c0,2.441-1.979,4.42-4.42,4.42h-3.683c-2.441,0-4.42-1.979-4.42-4.42v-8.545
							c0-2.441,1.979-4.422,4.42-4.422h3.683c2.441,0,4.42,1.981,4.42,4.422V95.154z"/>
					</g>
				</g>
				<g>
					<g>
						<path fill="#DFBF9B" d="M95.731,86.609v8.545c0,2.441-1.979,4.42-4.421,4.42h-3.683c-1.417,0-2.679-0.666-3.485-1.703
							c0.75,0.586,1.693,0.936,2.717,0.936h3.684c2.441,0,4.419-1.979,4.419-4.42V85.84c0-1.023-0.349-1.967-0.935-2.717
							C95.065,83.93,95.731,85.191,95.731,86.609z"/>
					</g>
				</g>
				<g>
					<g>
						<path fill="#333333" d="M95.072,80.887h-0.301v-1.791l-2.635,1.791h-6.603c-1.485,0-2.688,1.203-2.688,2.689
							c0,1.484,1.204,2.688,2.688,2.688h9.539c1.485,0,2.689-1.203,2.689-2.688v-4.512L95.072,80.887z"/>
					</g>
				</g>
				<g>
					<g>
						<path fill="#333333" d="M95.731,93.486v1.668c0,2.441-1.979,4.42-4.421,4.42h-3.683c-2.441,0-4.42-1.979-4.42-4.42v-1.668
							c0,2.441,1.979,4.42,4.42,4.42h3.683C93.752,97.906,95.731,95.928,95.731,93.486z"/>
					</g>
				</g>
				<g>
					<g>
						<path fill="#333333" d="M95.731,93.486v1.668c0,2.441-1.979,4.42-4.421,4.42h-3.683c-1.428,0-2.698-0.678-3.503-1.729
							c0.746,0.574,1.679,0.916,2.692,0.916h3.683c1.475,0,2.782-0.723,3.583-1.834C95.087,96.119,95.731,94.879,95.731,93.486z"/>
					</g>
				</g>
				<g>
					<g>
						<g>
							<g>
								<path fill="#AF865D" d="M88.68,93.695c0,0.436,0.354,0.789,0.789,0.789c0.436,0,0.79-0.354,0.79-0.789v-2.15
									c0-0.436-0.354-0.789-0.79-0.789c-0.436,0-0.789,0.354-0.789,0.789V93.695z"/>
							</g>
						</g>
					</g>
					<g>
						<g>
							<path fill="#AF865D" d="M90.706,93.645c0,0.207-0.169,0.375-0.376,0.375h-1.721c-0.207,0-0.376-0.168-0.376-0.375l0,0
								c0-0.207,0.169-0.375,0.376-0.375h1.721C90.537,93.27,90.706,93.437,90.706,93.645L90.706,93.645z"/>
						</g>
					</g>
				</g>
				<g opacity="0.5">
					<g>
						<path fill="#333333" d="M96.894,79.652v3.057c0,1.484-1.204,2.688-2.689,2.688h-9.538c-0.521,0-1.004-0.148-1.416-0.404
							c0.475,0.762,1.319,1.271,2.283,1.271h9.539c1.485,0,2.689-1.203,2.689-2.688v-4.512L96.894,79.652z"/>
					</g>
				</g>
				<g>
					<g>
						<g>
							<path fill="#333333" d="M93.502,91.623c-0.191,0-0.345-0.156-0.345-0.348c0-0.244-0.199-0.441-0.442-0.441
								c-0.244,0-0.441,0.197-0.441,0.441c0,0.191-0.155,0.348-0.346,0.348c-0.191,0-0.347-0.156-0.347-0.348
								c0-0.625,0.509-1.135,1.135-1.135c0.625,0,1.134,0.51,1.134,1.135C93.848,91.467,93.694,91.623,93.502,91.623z"/>
						</g>
					</g>
					<g>
						<g>
							<path fill="#333333" d="M87.012,91.623c-0.191,0-0.346-0.156-0.346-0.348c0-0.244-0.199-0.441-0.443-0.441
								c-0.243,0-0.441,0.197-0.441,0.441c0,0.191-0.155,0.348-0.346,0.348c-0.192,0-0.347-0.156-0.347-0.348
								c0-0.625,0.509-1.135,1.134-1.135c0.626,0,1.134,0.51,1.134,1.135C87.358,91.467,87.203,91.623,87.012,91.623z"/>
						</g>
					</g>
				</g>
				<g>
					<g>
						<path fill="#FF916E" d="M90.919,96.283c-0.955,0.211-1.944,0.211-2.899,0c-0.3-0.066-0.477-0.344-0.397-0.588l0,0
							c0.08-0.244,0.347-0.381,0.599-0.324c0.823,0.18,1.674,0.18,2.497,0c0.252-0.057,0.52,0.08,0.599,0.324l0,0
							C91.396,95.939,91.219,96.219,90.919,96.283z"/>
					</g>
				</g>
			</g>
		</g>
		<g>
			<g>
				<g>
					<path fill="#CCCBC9" d="M94.074,63.844c0-1.381,0-3.381,0-3.381h-2.69h-2.689c0,0,0,2,0,3.381c0,1.379-3.657,2.496-3.657,2.496
						h6.346h6.347C97.73,66.34,94.074,65.223,94.074,63.844z"/>
				</g>
				<g>
					<path fill="#333333" d="M98.273,66.754c0,0.301-0.238,0.545-0.532,0.545H85.027c-0.294,0-0.533-0.244-0.533-0.545l0,0
						c0-0.301,0.238-0.545,0.533-0.545h12.714C98.035,66.209,98.273,66.453,98.273,66.754L98.273,66.754z"/>
				</g>
			</g>
			<g>
				<g>
					<path fill="#333333" d="M108.238,35.961H74.531c-0.585,0-1.058,0.486-1.058,1.084v20.971h35.823V37.045
						C109.295,36.447,108.822,35.961,108.238,35.961z"/>
				</g>
				<g>
					<rect x="75.17" y="37.35" fill="#FFFFFF" width="32.427" height="19.277"/>
				</g>
				<g>
					<path fill="#FFFFFF" d="M73.472,57.805v3.215c0,0.598,0.474,1.082,1.058,1.082h33.707c0.584,0,1.058-0.484,1.058-1.082v-3.215
						H73.472z"/>
				</g>
				<g>
					<path fill="#CCCBC9" d="M92.33,59.953c0,0.535-0.423,0.969-0.946,0.969c-0.521,0-0.945-0.434-0.945-0.969
						c0-0.535,0.424-0.969,0.945-0.969C91.907,58.984,92.33,59.418,92.33,59.953z"/>
				</g>
				<g>
					<g>
						<rect x="75.17" y="37.342" fill="#A3A3A3" width="32.427" height="1.697"/>
					</g>
					<g>
						<path fill="#FF916E" d="M76.789,38.191c0,0.256-0.203,0.463-0.453,0.463c-0.251,0-0.455-0.207-0.455-0.463
							c0-0.258,0.204-0.465,0.455-0.465C76.586,37.727,76.789,37.934,76.789,38.191z"/>
					</g>
					<g>
						<path fill="#FFDB76" d="M78.362,38.191c0,0.256-0.204,0.463-0.455,0.463c-0.251,0-0.453-0.207-0.453-0.463
							c0-0.258,0.202-0.465,0.453-0.465C78.158,37.727,78.362,37.934,78.362,38.191z"/>
					</g>
					<g>
						<path fill="#ADEBF6" d="M79.934,38.191c0,0.256-0.203,0.463-0.453,0.463c-0.251,0-0.454-0.207-0.454-0.463
							c0-0.258,0.204-0.465,0.454-0.465C79.732,37.727,79.934,37.934,79.934,38.191z"/>
					</g>
					<g>
						<path fill="#CCCBC9" d="M106.457,38.191l0.328-0.336c0.048-0.049,0.048-0.129,0-0.178c-0.048-0.049-0.124-0.049-0.172,0
							l-0.328,0.336l-0.328-0.336c-0.048-0.049-0.125-0.049-0.173,0c-0.048,0.049-0.048,0.129,0,0.178l0.328,0.336l-0.328,0.334
							c-0.048,0.049-0.048,0.129,0,0.178c0.048,0.049,0.125,0.049,0.173,0l0.328-0.336l0.328,0.336c0.048,0.049,0.125,0.049,0.172,0
							c0.048-0.049,0.048-0.129,0-0.178L106.457,38.191z"/>
					</g>
				</g>
			</g>
			<g>
				<g>
					<g>
						<rect x="89.061" y="55.064" fill="#A3A3A3" width="3.826" height="0.764"/>
					</g>
					<g>
						<rect x="89.061" y="53.84" fill="#A3A3A3" width="4.84" height="0.766"/>
					</g>
				</g>
				<g>
					<g>
						<rect x="99.085" y="55.064" fill="#A3A3A3" width="5.463" height="0.764"/>
					</g>
					<g>
						<rect x="99.085" y="53.84" fill="#A3A3A3" width="4.84" height="0.766"/>
					</g>
				</g>
				<g>
					<g>
						<rect x="78.22" y="55.064" fill="#A3A3A3" width="5.852" height="0.764"/>
					</g>
					<g>
						<rect x="78.22" y="53.84" fill="#A3A3A3" width="3.827" height="0.766"/>
					</g>
				</g>
			</g>
			<g>
				<g>
					<path fill="#F2F2F2" d="M82.722,51.496c0,1.027-0.833,1.859-1.86,1.859c-1.027,0-1.861-0.832-1.861-1.859
						c0-1.027,0.834-1.861,1.861-1.861C81.889,49.635,82.722,50.469,82.722,51.496z"/>
				</g>
				<g>
					<path fill="#F2F2F2" d="M93.243,51.496c0,1.027-0.833,1.859-1.86,1.859c-1.027,0-1.86-0.832-1.86-1.859
						c0-1.027,0.833-1.861,1.86-1.861C92.411,49.635,93.243,50.469,93.243,51.496z"/>
				</g>
				<g>
					<path fill="#F2F2F2" d="M103.766,51.496c0,1.027-0.832,1.859-1.86,1.859c-1.027,0-1.86-0.832-1.86-1.859
						c0-1.027,0.833-1.861,1.86-1.861C102.934,49.635,103.766,50.469,103.766,51.496z"/>
				</g>
			</g>
			<g>
				<g id="XMLID_3019_">
					<g>
						<path fill="#F2F2F2" d="M95.891,44.498c0,2.49-2.018,4.508-4.507,4.508c-2.489,0-4.506-2.018-4.506-4.508
							c0-2.488,2.018-4.506,4.506-4.506C93.873,39.992,95.891,42.01,95.891,44.498z"/>
					</g>
				</g>
				<g>
					<g>
						<path fill="#FFDB76" d="M92.23,46.777c0,0.535-0.434,0.971-0.97,0.971s-0.97-0.436-0.97-0.971c0-0.535,0.435-0.969,0.97-0.969
							S92.23,46.242,92.23,46.777z"/>
					</g>
					<g>
						<path fill="#AF865D" d="M91.67,45.199h-0.82c-0.182,0-0.329,0.146-0.329,0.328c0,0,0.001,1.215,0.002,1.227
							c0.02,0.391,0.341,0.699,0.736,0.699c0.395,0,0.716-0.309,0.736-0.699c0.002-0.012,0.003-1.227,0.003-1.227
							C91.999,45.346,91.852,45.199,91.67,45.199z"/>
					</g>
					<g>
						<g>
							<path fill="#333333" d="M92.94,44.242v-1.434c0-0.623-0.531-1.129-1.186-1.129h-0.988c-0.655,0-1.186,0.506-1.186,1.129
								v1.434H92.94z"/>
						</g>
					</g>
					<g>
						<g>
							<path fill="#AF865D" d="M92.723,44.283c0,0.062,0.05,0.113,0.112,0.113l0,0c0.062,0,0.113-0.051,0.113-0.113v-0.379
								c0-0.062-0.051-0.113-0.113-0.113l0,0c-0.062,0-0.112,0.051-0.112,0.113V44.283z"/>
						</g>
					</g>
					<g>
						<g>
							<path fill="#AF865D" d="M89.571,44.283c0,0.062,0.05,0.113,0.113,0.113l0,0c0.062,0,0.113-0.051,0.113-0.113v-0.379
								c0-0.062-0.051-0.113-0.113-0.113l0,0c-0.063,0-0.113,0.051-0.113,0.113V44.283z"/>
						</g>
					</g>
					<g>
						<g>
							<path fill="#DFBF9B" d="M92.722,44.945c0,0.57-0.462,1.031-1.033,1.031h-0.86c-0.57,0-1.033-0.461-1.033-1.031v-1.996
								c0-0.57,0.462-1.033,1.033-1.033h0.86c0.571,0,1.033,0.463,1.033,1.033V44.945z"/>
						</g>
					</g>
					<g>
						<g>
							<path fill="#DFBF9B" d="M92.722,42.949v1.994c0,0.572-0.462,1.033-1.033,1.033h-0.86c-0.33,0-0.626-0.156-0.813-0.396
								c0.175,0.135,0.395,0.217,0.634,0.217h0.861c0.57,0,1.032-0.461,1.032-1.031V42.77c0-0.24-0.082-0.459-0.218-0.637
								C92.567,42.322,92.722,42.617,92.722,42.949z"/>
						</g>
					</g>
					<g>
						<g>
							<path fill="#333333" d="M92.569,41.613h-0.07v-0.42l-0.615,0.42h-1.542c-0.347,0-0.628,0.281-0.628,0.627
								c0,0.348,0.281,0.629,0.628,0.629h2.228c0.346,0,0.628-0.281,0.628-0.629v-1.055L92.569,41.613z"/>
						</g>
					</g>
					<g>
						<g>
							<path fill="#333333" d="M92.722,44.555v0.389c0,0.572-0.462,1.033-1.033,1.033h-0.86c-0.57,0-1.032-0.461-1.032-1.033v-0.389
								c0,0.57,0.462,1.033,1.032,1.033h0.86C92.261,45.588,92.722,45.125,92.722,44.555z"/>
						</g>
					</g>
					<g>
						<g>
							<path fill="#333333" d="M92.722,44.555v0.389c0,0.572-0.462,1.033-1.033,1.033h-0.86c-0.333,0-0.63-0.158-0.818-0.402
								c0.174,0.133,0.393,0.213,0.629,0.213h0.861c0.344,0,0.649-0.168,0.837-0.428C92.572,45.17,92.722,44.881,92.722,44.555z"/>
						</g>
					</g>
					<g>
						<g>
							<g>
								<g>
									<path fill="#AF865D" d="M91.075,44.604c0,0.104,0.082,0.186,0.185,0.186c0.102,0,0.185-0.082,0.185-0.186v-0.502
										c0-0.102-0.083-0.184-0.185-0.184c-0.102,0-0.185,0.082-0.185,0.184V44.604z"/>
								</g>
							</g>
						</g>
						<g>
							<g>
								<path fill="#AF865D" d="M91.549,44.592c0,0.049-0.039,0.088-0.087,0.088h-0.402c-0.049,0-0.088-0.039-0.088-0.088l0,0
									c0-0.049,0.039-0.088,0.088-0.088h0.402C91.51,44.504,91.549,44.543,91.549,44.592L91.549,44.592z"/>
							</g>
						</g>
					</g>
					<g opacity="0.5">
						<g>
							<path fill="#333333" d="M92.995,41.324v0.713c0,0.348-0.282,0.629-0.629,0.629h-2.228c-0.122,0-0.235-0.035-0.33-0.096
								c0.111,0.178,0.308,0.299,0.533,0.299h2.228c0.346,0,0.628-0.281,0.628-0.629v-1.055L92.995,41.324z"/>
						</g>
					</g>
					<g>
						<g>
							<g>
								<path fill="#333333" d="M92.202,44.119c-0.044,0-0.081-0.035-0.081-0.08c0-0.057-0.046-0.104-0.102-0.104
									c-0.057,0-0.104,0.047-0.104,0.104c0,0.045-0.036,0.08-0.081,0.08c-0.044,0-0.081-0.035-0.081-0.08
									c0-0.146,0.119-0.266,0.266-0.266c0.146,0,0.265,0.119,0.265,0.266C92.283,44.084,92.247,44.119,92.202,44.119z"/>
							</g>
						</g>
						<g>
							<g>
								<path fill="#333333" d="M90.686,44.119c-0.045,0-0.081-0.035-0.081-0.08c0-0.057-0.046-0.104-0.104-0.104
									s-0.103,0.047-0.103,0.104c0,0.045-0.037,0.08-0.081,0.08c-0.045,0-0.081-0.035-0.081-0.08c0-0.146,0.119-0.266,0.265-0.266
									c0.146,0,0.266,0.119,0.266,0.266C90.767,44.084,90.731,44.119,90.686,44.119z"/>
							</g>
						</g>
					</g>
					<g>
						<g>
							<path fill="#FF916E" d="M91.598,45.209c-0.223,0.049-0.454,0.049-0.676,0c-0.071-0.016-0.112-0.08-0.094-0.139l0,0
								c0.019-0.057,0.081-0.088,0.14-0.076c0.191,0.043,0.391,0.043,0.583,0c0.058-0.012,0.121,0.02,0.139,0.076l0,0
								C91.71,45.129,91.669,45.193,91.598,45.209z"/>
						</g>
					</g>
				</g>
			</g>
		</g>
		<g id="XMLID_2937_">
			<g id="XMLID_3017_">
				<g id="XMLID_3018_">
					<path fill="#333333" d="M46.129,105.357c0,0.504,0.361,0.912,0.806,0.912H58.13c0.445,0,0.806-0.408,0.806-0.912V86.184
						c0-0.506-0.361-0.914-0.806-0.914H46.934c-0.445,0-0.806,0.408-0.806,0.914V105.357z"/>
				</g>
			</g>
			<g id="XMLID_3016_">
				<path fill="#FFFFFF" d="M53.317,104.893c0,0.432-0.351,0.783-0.785,0.783c-0.434,0-0.785-0.352-0.785-0.783
					c0-0.434,0.352-0.787,0.785-0.787C52.966,104.105,53.317,104.459,53.317,104.893z"/>
			</g>
			<g id="XMLID_3014_">
				<g id="XMLID_3015_">
					<rect x="47.07" y="86.211" fill="#FFFFFF" width="10.923" height="17.369"/>
				</g>
			</g>
			<g>
				<g>
					<g>
						<rect x="51.667" y="100.705" fill="#A3A3A3" width="1.425" height="0.627"/>
					</g>
					<g>
						<rect x="51.667" y="99.701" fill="#A3A3A3" width="1.802" height="0.627"/>
					</g>
				</g>
				<g>
					<g>
						<rect x="55.398" y="100.705" fill="#A3A3A3" width="2.032" height="0.627"/>
					</g>
					<g>
						<rect x="55.398" y="99.701" fill="#A3A3A3" width="1.8" height="0.627"/>
					</g>
				</g>
				<g>
					<g>
						<rect x="47.633" y="100.705" fill="#A3A3A3" width="2.178" height="0.627"/>
					</g>
					<g>
						<rect x="47.633" y="99.701" fill="#A3A3A3" width="1.424" height="0.627"/>
					</g>
				</g>
			</g>
			<g>
				<g>
					<path fill="#F2F2F2" d="M47.78,97.168c0-0.522,0.422-0.941,0.942-0.941c0.52,0,0.941,0.42,0.941,0.941
						c0,0.519-0.421,0.941-0.941,0.941C48.202,98.109,47.78,97.687,47.78,97.168z"/>
				</g>
			</g>
			<g>
				<g>
					<path fill="#F2F2F2" d="M51.438,97.168c0-0.522,0.421-0.941,0.941-0.941c0.521,0,0.941,0.42,0.941,0.941
						c0,0.519-0.421,0.941-0.941,0.941C51.86,98.109,51.438,97.687,51.438,97.168z"/>
				</g>
			</g>
			<g>
				<g>
					<path fill="#F2F2F2" d="M55.203,97.168c0-0.522,0.421-0.941,0.941-0.941c0.521,0,0.942,0.42,0.942,0.941
						c0,0.519-0.421,0.941-0.942,0.941C55.625,98.109,55.203,97.687,55.203,97.168z"/>
				</g>
			</g>
			<g>
				<g id="XMLID_3013_">
					<g>
						<path fill="#F2F2F2" d="M55.733,90.939c0,1.768-1.433,3.201-3.201,3.201c-1.769,0-3.201-1.434-3.201-3.201
							c0-1.77,1.433-3.201,3.201-3.201C54.3,87.738,55.733,89.17,55.733,90.939z"/>
					</g>
				</g>
				<g>
					<g>
						<path fill="#FFDB76" d="M53.133,92.559c0,0.381-0.308,0.689-0.689,0.689c-0.38,0-0.688-0.309-0.688-0.689
							c0-0.381,0.308-0.689,0.688-0.689C52.825,91.869,53.133,92.178,53.133,92.559z"/>
					</g>
					<g>
						<path fill="#AF865D" d="M52.736,91.437h-0.583c-0.129,0-0.234,0.104-0.234,0.233c0,0,0.001,0.863,0.001,0.871
							c0.015,0.277,0.243,0.498,0.523,0.498c0.281,0,0.51-0.221,0.523-0.498c0.001-0.008,0.002-0.871,0.002-0.871
							C52.969,91.541,52.865,91.437,52.736,91.437z"/>
					</g>
					<g>
						<g>
							<path fill="#333333" d="M53.637,90.758V89.74c0-0.443-0.377-0.803-0.843-0.803h-0.702c-0.465,0-0.842,0.359-0.842,0.803
								v1.018H53.637z"/>
						</g>
					</g>
					<g>
						<g>
							<path fill="#AF865D" d="M53.483,90.785c0,0.047,0.036,0.082,0.08,0.082l0,0c0.044,0,0.081-0.035,0.081-0.082v-0.268
								c0-0.045-0.036-0.08-0.081-0.08l0,0c-0.044,0-0.08,0.035-0.08,0.08V90.785z"/>
						</g>
					</g>
					<g>
						<g>
							<path fill="#AF865D" d="M51.243,90.785c0,0.047,0.036,0.082,0.081,0.082l0,0c0.044,0,0.08-0.035,0.08-0.082v-0.268
								c0-0.045-0.036-0.08-0.08-0.08l0,0c-0.045,0-0.081,0.035-0.081,0.08V90.785z"/>
						</g>
					</g>
					<g>
						<g>
							<path fill="#DFBF9B" d="M53.483,91.256c0,0.404-0.329,0.734-0.733,0.734h-0.611c-0.405,0-0.733-0.33-0.733-0.734v-1.418
								c0-0.404,0.329-0.732,0.733-0.732h0.611c0.405,0,0.733,0.328,0.733,0.732V91.256z"/>
						</g>
					</g>
					<g>
						<g>
							<path fill="#DFBF9B" d="M53.483,89.838v1.418c0,0.404-0.329,0.734-0.733,0.734h-0.611c-0.235,0-0.445-0.111-0.579-0.283
								c0.125,0.098,0.281,0.156,0.451,0.156h0.611c0.405,0,0.733-0.328,0.733-0.734v-1.418c0-0.17-0.059-0.326-0.155-0.451
								C53.372,89.395,53.483,89.604,53.483,89.838z"/>
						</g>
					</g>
					<g>
						<g>
							<path fill="#333333" d="M53.374,88.889h-0.05v-0.297l-0.438,0.297h-1.095c-0.247,0-0.446,0.199-0.446,0.445
								c0,0.248,0.2,0.447,0.446,0.447h1.583c0.246,0,0.446-0.199,0.446-0.447v-0.748L53.374,88.889z"/>
						</g>
					</g>
					<g>
						<g>
							<path fill="#333333" d="M53.483,90.98v0.275c0,0.404-0.329,0.734-0.733,0.734h-0.611c-0.406,0-0.733-0.33-0.733-0.734V90.98
								c0,0.404,0.328,0.732,0.733,0.732h0.611C53.155,91.713,53.483,91.385,53.483,90.98z"/>
						</g>
					</g>
					<g>
						<g>
							<path fill="#333333" d="M53.483,90.98v0.275c0,0.404-0.329,0.734-0.733,0.734h-0.611c-0.237,0-0.448-0.113-0.581-0.287
								c0.123,0.096,0.278,0.152,0.446,0.152h0.611c0.245,0,0.462-0.121,0.595-0.305C53.376,91.416,53.483,91.211,53.483,90.98z"/>
						</g>
					</g>
					<g>
						<g>
							<g>
								<g>
									<path fill="#AF865D" d="M52.313,91.016c0,0.07,0.059,0.129,0.13,0.129c0.073,0,0.131-0.059,0.131-0.129v-0.357
										c0-0.072-0.059-0.131-0.131-0.131c-0.072,0-0.13,0.059-0.13,0.131V91.016z"/>
								</g>
							</g>
						</g>
						<g>
							<g>
								<path fill="#AF865D" d="M52.649,91.006c0,0.035-0.028,0.062-0.062,0.062h-0.286c-0.034,0-0.062-0.027-0.062-0.062l0,0
									c0-0.035,0.028-0.062,0.062-0.062h0.286C52.621,90.943,52.649,90.971,52.649,91.006L52.649,91.006z"/>
							</g>
						</g>
					</g>
					<g opacity="0.5">
						<g>
							<path fill="#333333" d="M53.676,88.684v0.508c0,0.246-0.2,0.445-0.446,0.445h-1.583c-0.086,0-0.167-0.023-0.235-0.066
								c0.079,0.127,0.219,0.211,0.379,0.211h1.583c0.246,0,0.446-0.199,0.446-0.447v-0.748L53.676,88.684z"/>
						</g>
					</g>
					<g>
						<g>
							<g>
								<path fill="#333333" d="M53.113,90.67c-0.031,0-0.057-0.025-0.057-0.057c0-0.041-0.033-0.074-0.074-0.074
									c-0.041,0-0.074,0.033-0.074,0.074c0,0.031-0.025,0.057-0.057,0.057c-0.032,0-0.058-0.025-0.058-0.057
									c0-0.105,0.085-0.188,0.188-0.188s0.188,0.082,0.188,0.188C53.171,90.645,53.145,90.67,53.113,90.67z"/>
							</g>
						</g>
						<g>
							<g>
								<path fill="#333333" d="M52.036,90.67c-0.032,0-0.057-0.025-0.057-0.057c0-0.041-0.033-0.074-0.074-0.074
									c-0.04,0-0.073,0.033-0.073,0.074c0,0.031-0.026,0.057-0.057,0.057c-0.031,0-0.058-0.025-0.058-0.057
									c0-0.105,0.085-0.188,0.188-0.188c0.105,0,0.189,0.082,0.189,0.188C52.094,90.645,52.068,90.67,52.036,90.67z"/>
							</g>
						</g>
					</g>
					<g>
						<g>
							<path fill="#FF916E" d="M52.684,91.443c-0.158,0.035-0.322,0.035-0.481,0c-0.05-0.01-0.079-0.057-0.066-0.098l0,0
								c0.013-0.041,0.057-0.062,0.1-0.053c0.136,0.029,0.277,0.029,0.413,0c0.042-0.01,0.087,0.012,0.1,0.053l0,0
								C52.763,91.387,52.735,91.434,52.684,91.443z"/>
						</g>
					</g>
				</g>
			</g>
		</g>
		<g>
			<g>
				<path fill="#FFFFFF" d="M71.909,142.242v0.898c0,0.494,0.393,0.896,0.878,0.896h34.426c0.485,0,0.878-0.402,0.878-0.896v-0.898
					H71.909z"/>
			</g>
			<g>
				<path fill="#333333" d="M106.417,142.242v-18.994c0-1.057-0.837-1.914-1.869-1.914H75.452c-1.033,0-1.869,0.858-1.869,1.914
					v18.994H106.417z"/>
			</g>
			<g>
				<rect x="75.214" y="123.148" fill="#FFFFFF" width="29.573" height="17.625"/>
			</g>
			<g>
				<path fill="#FFFFFF" d="M90.482,122.25c0,0.271-0.216,0.494-0.483,0.494c-0.266,0-0.482-0.223-0.482-0.494
					c0-0.271,0.216-0.494,0.482-0.494C90.266,121.756,90.482,121.979,90.482,122.25z"/>
			</g>
			<g>
				<rect x="75.214" y="123.148" fill="#E6E6E6" width="29.573" height="1.479"/>
			</g>
			<g>
				<path fill="#FF916E" d="M76.625,123.887c0,0.225-0.177,0.406-0.396,0.406c-0.218,0-0.396-0.182-0.396-0.406
					c0-0.223,0.177-0.404,0.396-0.404C76.449,123.482,76.625,123.664,76.625,123.887z"/>
			</g>
			<g>
				<path fill="#FFDB76" d="M77.996,123.887c0,0.225-0.177,0.406-0.396,0.406c-0.218,0-0.395-0.182-0.395-0.406
					c0-0.223,0.177-0.404,0.395-0.404C77.82,123.482,77.996,123.664,77.996,123.887z"/>
			</g>
			<g>
				<path fill="#ADEBF6" d="M79.368,123.887c0,0.225-0.177,0.406-0.396,0.406c-0.219,0-0.396-0.182-0.396-0.406
					c0-0.223,0.177-0.404,0.396-0.404C79.191,123.482,79.368,123.664,79.368,123.887z"/>
			</g>
			<g>
				<path fill="#333333" d="M103.837,123.887l0.286-0.291c0.041-0.045,0.041-0.113,0-0.154c-0.041-0.043-0.109-0.043-0.15,0
					l-0.286,0.293l-0.287-0.293c-0.042-0.043-0.109-0.043-0.15,0c-0.042,0.041-0.042,0.109,0,0.154l0.287,0.291l-0.287,0.295
					c-0.042,0.041-0.042,0.111,0,0.152c0.041,0.043,0.108,0.043,0.15,0l0.287-0.293l0.286,0.293c0.041,0.043,0.109,0.043,0.15,0
					c0.041-0.041,0.041-0.111,0-0.152L103.837,123.887z"/>
			</g>
			<g>
				<g>
					<g>
						<g>
							<rect x="87.917" y="139.152" fill="#A3A3A3" width="3.43" height="0.686"/>
						</g>
						<g>
							<rect x="87.917" y="138.057" fill="#A3A3A3" width="4.34" height="0.684"/>
						</g>
					</g>
					<g>
						<g>
							<rect x="96.904" y="139.152" fill="#A3A3A3" width="4.897" height="0.686"/>
						</g>
						<g>
							<rect x="96.904" y="138.057" fill="#A3A3A3" width="4.34" height="0.684"/>
						</g>
					</g>
					<g>
						<g>
							<rect x="78.199" y="139.152" fill="#A3A3A3" width="5.246" height="0.686"/>
						</g>
						<g>
							<rect x="78.199" y="138.057" fill="#A3A3A3" width="3.43" height="0.684"/>
						</g>
					</g>
				</g>
				<g>
					<g>
						<path fill="#F2F2F2" d="M82.235,135.955c0,0.92-0.747,1.668-1.668,1.668c-0.921,0-1.667-0.748-1.667-1.668
							c0-0.922,0.746-1.67,1.667-1.67C81.488,134.285,82.235,135.033,82.235,135.955z"/>
					</g>
					<g>
						<path fill="#F2F2F2" d="M91.667,135.955c0,0.92-0.746,1.668-1.668,1.668c-0.921,0-1.667-0.748-1.667-1.668
							c0-0.922,0.746-1.67,1.667-1.67C90.921,134.285,91.667,135.033,91.667,135.955z"/>
					</g>
					<g>
						<path fill="#F2F2F2" d="M101.101,135.955c0,0.92-0.747,1.668-1.668,1.668c-0.92,0-1.668-0.748-1.668-1.668
							c0-0.922,0.747-1.67,1.668-1.67C100.354,134.285,101.101,135.033,101.101,135.955z"/>
					</g>
				</g>
				<g>
					<g id="XMLID_2923_">
						<g>
							<path fill="#F2F2F2" d="M94.094,129.682c0,2.26-1.833,4.094-4.094,4.094c-2.261,0-4.093-1.834-4.093-4.094
								c0-2.262,1.833-4.094,4.093-4.094C92.261,125.588,94.094,127.42,94.094,129.682z"/>
						</g>
					</g>
					<g>
						<g>
							<path fill="#FFDB76" d="M90.768,131.752c0,0.486-0.395,0.881-0.881,0.881c-0.486,0-0.881-0.395-0.881-0.881
								s0.394-0.881,0.881-0.881C90.373,130.871,90.768,131.266,90.768,131.752z"/>
						</g>
						<g>
							<path fill="#AF865D" d="M90.26,130.318h-0.746c-0.164,0-0.298,0.131-0.298,0.297c0,0,0.001,1.104,0.001,1.115
								c0.019,0.354,0.311,0.635,0.669,0.635c0.359,0,0.65-0.281,0.669-0.635c0.001-0.012,0.002-1.115,0.002-1.115
								C90.558,130.449,90.425,130.318,90.26,130.318z"/>
						</g>
						<g>
							<g>
								<path fill="#333333" d="M91.414,129.449v-1.303c0-0.566-0.483-1.025-1.078-1.025h-0.898c-0.595,0-1.077,0.459-1.077,1.025
									v1.303H91.414z"/>
							</g>
						</g>
						<g>
							<g>
								<path fill="#AF865D" d="M91.216,129.486c0,0.057,0.046,0.102,0.103,0.102l0,0c0.056,0,0.102-0.045,0.102-0.102v-0.346
									c0-0.057-0.046-0.102-0.102-0.102l0,0c-0.057,0-0.103,0.045-0.103,0.102V129.486z"/>
							</g>
						</g>
						<g>
							<g>
								<path fill="#AF865D" d="M88.353,129.486c0,0.057,0.045,0.102,0.103,0.102l0,0c0.057,0,0.103-0.045,0.103-0.102v-0.346
									c0-0.057-0.046-0.102-0.103-0.102l0,0c-0.057,0-0.103,0.045-0.103,0.102V129.486z"/>
							</g>
						</g>
						<g>
							<g>
								<path fill="#DFBF9B" d="M91.216,130.086c0,0.518-0.42,0.938-0.938,0.938h-0.781c-0.519,0-0.938-0.42-0.938-0.938v-1.812
									c0-0.518,0.42-0.938,0.938-0.938h0.781c0.518,0,0.938,0.42,0.938,0.938V130.086z"/>
							</g>
						</g>
						<g>
							<g>
								<path fill="#DFBF9B" d="M91.216,128.273v1.812c0,0.518-0.42,0.938-0.938,0.938h-0.781c-0.302,0-0.568-0.141-0.74-0.361
									c0.159,0.125,0.359,0.199,0.576,0.199h0.781c0.518,0,0.938-0.42,0.938-0.938v-1.814c0-0.217-0.074-0.416-0.199-0.576
									C91.075,127.705,91.216,127.973,91.216,128.273z"/>
							</g>
						</g>
						<g>
							<g>
								<path fill="#333333" d="M91.076,127.061h-0.064v-0.381l-0.559,0.381h-1.401c-0.315,0-0.571,0.254-0.571,0.568
									c0,0.316,0.256,0.57,0.571,0.57h2.024c0.315,0,0.57-0.254,0.57-0.57v-0.957L91.076,127.061z"/>
							</g>
						</g>
						<g>
							<g>
								<path fill="#333333" d="M91.216,129.732v0.354c0,0.518-0.42,0.938-0.938,0.938h-0.781c-0.519,0-0.938-0.42-0.938-0.938
									v-0.354c0,0.518,0.42,0.938,0.938,0.938h0.781C90.796,130.67,91.216,130.25,91.216,129.732z"/>
							</g>
						</g>
						<g>
							<g>
								<path fill="#333333" d="M91.216,129.732v0.354c0,0.518-0.42,0.938-0.938,0.938h-0.781c-0.303,0-0.573-0.143-0.744-0.367
									c0.158,0.123,0.357,0.195,0.572,0.195h0.781c0.312,0,0.59-0.152,0.76-0.389C91.079,130.291,91.216,130.027,91.216,129.732z"
									/>
							</g>
						</g>
						<g>
							<g>
								<g>
									<g>
										<path fill="#AF865D" d="M89.72,129.777c0,0.092,0.075,0.166,0.167,0.166c0.093,0,0.168-0.074,0.168-0.166v-0.457
											c0-0.092-0.075-0.168-0.168-0.168c-0.092,0-0.167,0.076-0.167,0.168V129.777z"/>
									</g>
								</g>
							</g>
							<g>
								<g>
									<path fill="#AF865D" d="M90.149,129.766c0,0.045-0.036,0.08-0.08,0.08h-0.365c-0.044,0-0.08-0.035-0.08-0.08l0,0
										c0-0.043,0.035-0.08,0.08-0.08h0.365C90.114,129.686,90.149,129.723,90.149,129.766L90.149,129.766z"/>
								</g>
							</g>
						</g>
						<g opacity="0.5">
							<g>
								<path fill="#333333" d="M91.462,126.797v0.648c0,0.316-0.255,0.57-0.57,0.57h-2.023c-0.11,0-0.213-0.031-0.3-0.086
									c0.101,0.162,0.279,0.27,0.484,0.27h2.024c0.315,0,0.57-0.254,0.57-0.57v-0.957L91.462,126.797z"/>
							</g>
						</g>
						<g>
							<g>
								<g>
									<path fill="#333333" d="M90.743,129.336c-0.041,0-0.074-0.031-0.074-0.072c0-0.051-0.042-0.094-0.094-0.094
										c-0.052,0-0.094,0.043-0.094,0.094c0,0.041-0.033,0.072-0.074,0.072c-0.04,0-0.073-0.031-0.073-0.072
										c0-0.133,0.108-0.24,0.241-0.24c0.133,0,0.241,0.107,0.241,0.24C90.817,129.305,90.783,129.336,90.743,129.336z"/>
								</g>
							</g>
							<g>
								<g>
									<path fill="#333333" d="M89.366,129.336c-0.041,0-0.073-0.031-0.073-0.072c0-0.051-0.042-0.094-0.094-0.094
										c-0.051,0-0.093,0.043-0.093,0.094c0,0.041-0.033,0.072-0.073,0.072c-0.041,0-0.074-0.031-0.074-0.072
										c0-0.133,0.108-0.24,0.24-0.24c0.133,0,0.24,0.107,0.24,0.24C89.439,129.305,89.407,129.336,89.366,129.336z"/>
								</g>
							</g>
						</g>
						<g>
							<g>
								<path fill="#FF916E" d="M90.195,130.326c-0.203,0.045-0.412,0.045-0.615,0c-0.063-0.016-0.101-0.072-0.084-0.125l0,0
									c0.017-0.051,0.074-0.08,0.127-0.068c0.175,0.037,0.355,0.037,0.53,0c0.054-0.012,0.11,0.018,0.127,0.068l0,0
									C90.296,130.254,90.259,130.312,90.195,130.326z"/>
							</g>
						</g>
					</g>
				</g>
			</g>
		</g>
		<g id="XMLID_2917_">
			<g id="XMLID_2922_">
				<path fill-rule="evenodd" clip-rule="evenodd" fill="#333333" d="M116.794,88.187h29.199c0.821,0,1.494,0.674,1.494,1.496
					v15.889c0,0.822-0.672,1.494-1.494,1.494h-29.199c-0.822,0-1.495-0.672-1.495-1.494V89.684
					C115.3,88.861,115.972,88.187,116.794,88.187z"/>
			</g>
			<g id="XMLID_2921_">
				<rect x="117.761" y="89.789" fill-rule="evenodd" clip-rule="evenodd" fill="#FFFFFF" width="28.256" height="15.338"/>
			</g>
			<g id="XMLID_2920_">
				<rect x="117.761" y="89.789" fill-rule="evenodd" clip-rule="evenodd" fill="#CCCBC9" width="28.256" height="1.977"/>
			</g>
			<g id="XMLID_2919_">
				<path fill-rule="evenodd" clip-rule="evenodd" fill="#CCCBC9" d="M117.266,97.629c0,0.328-0.268,0.598-0.598,0.598
					c-0.331,0-0.598-0.27-0.598-0.598c0-0.332,0.267-0.6,0.598-0.6C116.998,97.029,117.266,97.297,117.266,97.629z"/>
			</g>
			<g>
				<g id="XMLID_2918_">
					<g>
						<path fill="#F2F2F2" d="M135.522,95.898c0,2.006-1.627,3.633-3.633,3.633c-2.006,0-3.632-1.627-3.632-3.633
							c0-2.006,1.626-3.633,3.632-3.633C133.895,92.266,135.522,93.893,135.522,95.898z"/>
					</g>
				</g>
				<g>
					<g>
						<path fill="#FFDB76" d="M132.571,97.736c0,0.432-0.349,0.781-0.781,0.781c-0.432,0-0.782-0.35-0.782-0.781
							c0-0.434,0.35-0.783,0.782-0.783C132.221,96.953,132.571,97.303,132.571,97.736z"/>
					</g>
					<g>
						<path fill="#AF865D" d="M132.12,96.463h-0.662c-0.146,0-0.264,0.117-0.264,0.264c0,0,0,0.98,0.001,0.99
							c0.017,0.312,0.276,0.564,0.594,0.564c0.318,0,0.578-0.252,0.594-0.564c0.001-0.01,0.002-0.99,0.002-0.99
							C132.385,96.58,132.266,96.463,132.12,96.463z"/>
					</g>
					<g>
						<g>
							<path fill="#333333" d="M133.144,95.693v-1.156c0-0.504-0.429-0.91-0.957-0.91h-0.797c-0.528,0-0.956,0.406-0.956,0.91v1.156
								H133.144z"/>
						</g>
					</g>
					<g>
						<g>
							<path fill="#AF865D" d="M132.968,95.725c0,0.051,0.041,0.092,0.091,0.092l0,0c0.051,0,0.092-0.041,0.092-0.092V95.42
								c0-0.051-0.041-0.092-0.092-0.092l0,0c-0.05,0-0.091,0.041-0.091,0.092V95.725z"/>
						</g>
					</g>
					<g>
						<g>
							<path fill="#AF865D" d="M130.428,95.725c0,0.051,0.042,0.092,0.091,0.092l0,0c0.05,0,0.091-0.041,0.091-0.092V95.42
								c0-0.051-0.04-0.092-0.091-0.092l0,0c-0.05,0-0.091,0.041-0.091,0.092V95.725z"/>
						</g>
					</g>
					<g>
						<g>
							<path fill="#DFBF9B" d="M132.968,96.258c0,0.459-0.373,0.832-0.832,0.832h-0.693c-0.46,0-0.833-0.373-0.833-0.832v-1.609
								c0-0.459,0.373-0.832,0.833-0.832h0.693c0.46,0,0.832,0.373,0.832,0.832V96.258z"/>
						</g>
					</g>
					<g>
						<g>
							<path fill="#DFBF9B" d="M132.968,94.648v1.609c0,0.459-0.373,0.832-0.832,0.832h-0.693c-0.267,0-0.504-0.125-0.656-0.32
								c0.142,0.109,0.319,0.176,0.512,0.176h0.694c0.458,0,0.832-0.373,0.832-0.832v-1.607c0-0.193-0.066-0.371-0.176-0.512
								C132.842,94.145,132.968,94.383,132.968,94.648z"/>
						</g>
					</g>
					<g>
						<g>
							<path fill="#333333" d="M132.844,93.572h-0.057v-0.338l-0.496,0.338h-1.243c-0.278,0-0.505,0.227-0.505,0.506
								c0,0.279,0.227,0.506,0.505,0.506h1.796c0.279,0,0.506-0.226,0.506-0.506v-0.85L132.844,93.572z"/>
						</g>
					</g>
					<g>
						<g>
							<path fill="#333333" d="M132.968,95.943v0.314c0,0.459-0.373,0.832-0.832,0.832h-0.693c-0.46,0-0.833-0.373-0.833-0.832
								v-0.314c0,0.461,0.373,0.832,0.833,0.832h0.693C132.595,96.775,132.968,96.404,132.968,95.943z"/>
						</g>
					</g>
					<g>
						<g>
							<path fill="#333333" d="M132.968,95.943v0.314c0,0.459-0.373,0.832-0.832,0.832h-0.693c-0.269,0-0.508-0.127-0.66-0.326
								c0.142,0.109,0.317,0.174,0.507,0.174h0.693c0.277,0,0.524-0.137,0.675-0.346C132.847,96.439,132.968,96.205,132.968,95.943z
								"/>
						</g>
					</g>
					<g>
						<g>
							<g>
								<g>
									<path fill="#AF865D" d="M131.64,95.984c0,0.08,0.066,0.146,0.149,0.146c0.083,0,0.148-0.066,0.148-0.146v-0.406
										c0-0.082-0.066-0.148-0.148-0.148c-0.082,0-0.149,0.066-0.149,0.148V95.984z"/>
								</g>
							</g>
						</g>
						<g>
							<g>
								<path fill="#AF865D" d="M132.022,95.973c0,0.039-0.032,0.072-0.07,0.072h-0.324c-0.04,0-0.07-0.033-0.07-0.072l0,0
									c0-0.037,0.031-0.07,0.07-0.07h0.324C131.99,95.902,132.022,95.936,132.022,95.973L132.022,95.973z"/>
							</g>
						</g>
					</g>
					<g opacity="0.5">
						<g>
							<path fill="#333333" d="M133.187,93.34v0.576c0,0.279-0.227,0.504-0.506,0.504h-1.795c-0.098,0-0.19-0.025-0.267-0.074
								c0.089,0.143,0.249,0.238,0.429,0.238h1.796c0.279,0,0.506-0.226,0.506-0.506v-0.85L133.187,93.34z"/>
						</g>
					</g>
					<g>
						<g>
							<g>
								<path fill="#333333" d="M132.548,95.594c-0.036,0-0.063-0.029-0.063-0.066c0-0.045-0.038-0.082-0.085-0.082
									c-0.045,0-0.083,0.037-0.083,0.082c0,0.037-0.029,0.066-0.065,0.066c-0.036,0-0.065-0.029-0.065-0.066
									c0-0.117,0.096-0.213,0.213-0.213c0.118,0,0.214,0.096,0.214,0.213C132.614,95.564,132.584,95.594,132.548,95.594z"/>
							</g>
						</g>
						<g>
							<g>
								<path fill="#333333" d="M131.326,95.594c-0.036,0-0.065-0.029-0.065-0.066c0-0.045-0.038-0.082-0.083-0.082
									c-0.047,0-0.084,0.037-0.084,0.082c0,0.037-0.028,0.066-0.065,0.066c-0.036,0-0.065-0.029-0.065-0.066
									c0-0.117,0.095-0.213,0.214-0.213c0.116,0,0.213,0.096,0.213,0.213C131.392,95.564,131.363,95.594,131.326,95.594z"/>
							</g>
						</g>
					</g>
					<g>
						<g>
							<path fill="#FF916E" d="M132.062,96.471c-0.18,0.039-0.366,0.039-0.546,0c-0.056-0.014-0.09-0.064-0.075-0.111l0,0
								c0.015-0.045,0.065-0.07,0.112-0.061c0.155,0.033,0.315,0.033,0.47,0c0.048-0.01,0.099,0.016,0.113,0.061l0,0
								C132.152,96.406,132.118,96.457,132.062,96.471z"/>
						</g>
					</g>
				</g>
			</g>
			<g>
				<g>
					<g>
						<rect x="130.111" y="103.984" fill="#A3A3A3" width="2.928" height="0.584"/>
					</g>
					<g>
						<rect x="130.111" y="103.049" fill="#A3A3A3" width="3.704" height="0.584"/>
					</g>
				</g>
				<g>
					<g>
						<rect x="137.783" y="103.984" fill="#A3A3A3" width="4.181" height="0.584"/>
					</g>
					<g>
						<rect x="137.783" y="103.049" fill="#A3A3A3" width="3.704" height="0.584"/>
					</g>
				</g>
				<g>
					<g>
						<rect x="121.814" y="103.984" fill="#A3A3A3" width="4.478" height="0.584"/>
					</g>
					<g>
						<rect x="121.814" y="103.049" fill="#A3A3A3" width="2.929" height="0.584"/>
					</g>
				</g>
			</g>
			<g>
				<g>
					<path fill="#F2F2F2" d="M125.26,101.254c0,0.785-0.637,1.424-1.423,1.424c-0.787,0-1.424-0.639-1.424-1.424
						c0-0.787,0.638-1.424,1.424-1.424C124.622,99.83,125.26,100.467,125.26,101.254z"/>
				</g>
				<g>
					<path fill="#F2F2F2" d="M133.313,101.254c0,0.785-0.637,1.424-1.424,1.424c-0.786,0-1.423-0.639-1.423-1.424
						c0-0.787,0.638-1.424,1.423-1.424C132.676,99.83,133.313,100.467,133.313,101.254z"/>
				</g>
				<g>
					<path fill="#F2F2F2" d="M141.366,101.254c0,0.785-0.639,1.424-1.424,1.424c-0.786,0-1.424-0.639-1.424-1.424
						c0-0.787,0.638-1.424,1.424-1.424C140.727,99.83,141.366,100.467,141.366,101.254z"/>
				</g>
			</g>
		</g>
		<g>
			<g>
				<path fill="#333333" d="M113.891,59.834c-0.742,0-1.344-0.602-1.344-1.344s0.602-1.344,1.344-1.344
					c0.743,0,1.344,0.602,1.344,1.344S114.634,59.834,113.891,59.834z"/>
			</g>
			<g>
				<g>
					<rect x="116.483" y="58.105" fill="#333333" width="0.96" height="0.768"/>
				</g>
				<g>
					<path fill="#333333" d="M127.526,58.873h-1.68v-0.768h1.68V58.873z M124.165,58.873h-1.68v-0.768h1.68V58.873z M120.804,58.873
						h-1.68v-0.768h1.68V58.873z"/>
				</g>
				<g>
					<polygon fill="#333333" points="130.55,59.449 129.782,59.449 129.782,58.873 129.207,58.873 129.207,58.105 130.55,58.105 
											"/>
				</g>
				<g>
					<path fill="#333333" d="M130.55,75.723h-0.768v-2.035h0.768V75.723z M130.55,71.654h-0.768v-2.033h0.768V71.654z
						 M130.55,67.586h-0.768v-2.033h0.768V67.586z M130.55,63.518h-0.768v-2.033h0.768V63.518z"/>
				</g>
				<g>
					<polygon fill="#333333" points="130.55,79.1 129.207,79.1 129.207,78.332 129.782,78.332 129.782,77.756 130.55,77.756 					
						"/>
				</g>
				<g>
					<path fill="#333333" d="M127.1,79.1h-2.105v-0.768h2.105V79.1z M122.889,79.1h-2.105v-0.768h2.105V79.1z M118.678,79.1h-2.106
						v-0.768h2.106V79.1z M114.466,79.1h-2.104v-0.768h2.104V79.1z"/>
				</g>
				<g>
					<rect x="109.295" y="78.332" fill="#333333" width="0.96" height="0.768"/>
				</g>
			</g>
		</g>
		<g>
			<g>
				<path fill="#333333" d="M53.932,82.484c0,0.742-0.602,1.344-1.344,1.344c-0.742,0-1.344-0.602-1.344-1.344
					c0-0.744,0.603-1.344,1.344-1.344C53.33,81.141,53.932,81.74,53.932,82.484z"/>
			</g>
			<g>
				<g>
					<rect x="52.203" y="78.932" fill="#333333" width="0.768" height="0.961"/>
				</g>
				<g>
					<path fill="#333333" d="M52.972,77.232h-0.769v-1.701h0.769V77.232z M52.972,73.832h-0.769v-1.699h0.769V73.832z"/>
				</g>
				<g>
					<polygon fill="#333333" points="52.972,70.434 52.203,70.434 52.203,69.088 53.548,69.088 53.548,69.857 52.972,69.857 					
						"/>
				</g>
				<g>
					<path fill="#333333" d="M69.82,69.857h-2.034v-0.77h2.034V69.857z M65.752,69.857h-2.034v-0.77h2.034V69.857z M61.684,69.857
						H59.65v-0.77h2.034V69.857z M57.616,69.857h-2.034v-0.77h2.034V69.857z"/>
				</g>
				<g>
					<polygon fill="#333333" points="73.198,70.434 72.43,70.434 72.43,69.857 71.854,69.857 71.854,69.088 73.198,69.088 					"/>
				</g>
				<g>
					<path fill="#333333" d="M73.198,77.299H72.43v-1.717h0.768V77.299z M73.198,73.865H72.43V72.15h0.768V73.865z"/>
				</g>
				<g>
					<rect x="72.43" y="79.016" fill="#333333" width="0.768" height="0.961"/>
				</g>
			</g>
		</g>
		<g>
			<g>
				<path fill="#333333" d="M123.14,110.207c0-0.742,0.602-1.346,1.345-1.346c0.742,0,1.343,0.604,1.343,1.346
					c0,0.74-0.601,1.344-1.343,1.344C123.742,111.551,123.14,110.947,123.14,110.207z"/>
			</g>
			<g>
				<g>
					<rect x="124.1" y="112.541" fill="#333333" width="0.768" height="0.961"/>
				</g>
				<g>
					<rect x="124.1" y="114.578" fill="#333333" width="0.768" height="1.076"/>
				</g>
				<g>
					<polygon fill="#333333" points="124.868,118.076 123.524,118.076 123.524,117.309 124.1,117.309 124.1,116.732 
						124.868,116.732 					"/>
				</g>
				<g>
					<path fill="#333333" d="M121.703,118.076h-1.82v-0.768h1.82V118.076z M118.063,118.076h-1.821v-0.768h1.821V118.076z
						 M114.42,118.076h-1.819v-0.768h1.819V118.076z M110.779,118.076h-1.82v-0.768h1.82V118.076z"/>
				</g>
				<g>
					<polygon fill="#333333" points="107.138,118.076 105.794,118.076 105.794,116.732 106.562,116.732 106.562,117.309 
						107.138,117.309 					"/>
				</g>
				<g>
					<path fill="#333333" d="M106.562,115.1h-0.768v-1.631h0.768V115.1z M106.562,111.836h-0.768v-1.633h0.768V111.836z"/>
				</g>
				<g>
					<rect x="105.794" y="107.613" fill="#333333" width="0.768" height="0.959"/>
				</g>
			</g>
		</g>
		<g>
			<g>
				<path fill="#333333" d="M70.792,124.434c0.743,0,1.344,0.602,1.344,1.344c0,0.742-0.602,1.344-1.344,1.344
					c-0.742,0-1.344-0.602-1.344-1.344C69.448,125.035,70.05,124.434,70.792,124.434z"/>
			</g>
			<g>
				<g>
					<rect x="67.051" y="125.393" fill="#333333" width="0.96" height="0.768"/>
				</g>
				<g>
					<path fill="#333333" d="M65.201,126.16h-1.848v-0.768h1.848V126.16z M61.504,126.16h-1.848v-0.768h1.848V126.16z"/>
				</g>
				<g>
					<polygon fill="#333333" points="57.806,126.16 56.462,126.16 56.462,124.816 57.23,124.816 57.23,125.393 57.806,125.393 					
						"/>
				</g>
				<g>
					<path fill="#333333" d="M57.23,122.768h-0.768v-2.049h0.768V122.768z M57.23,118.672h-0.768v-2.049h0.768V118.672z
						 M57.23,114.574h-0.768v-2.049h0.768V114.574z"/>
				</g>
				<g>
					<polygon fill="#333333" points="57.23,110.477 56.462,110.477 56.462,109.133 57.806,109.133 57.806,109.9 57.23,109.9 					
						"/>
				</g>
				<g>
					<path fill="#333333" d="M70.338,109.9h-2.089v-0.768h2.089V109.9z M66.161,109.9h-2.088v-0.768h2.088V109.9z M61.984,109.9
						h-2.089v-0.768h2.089V109.9z"/>
				</g>
				<g>
					<rect x="72.427" y="109.133" fill="#333333" width="0.96" height="0.767"/>
				</g>
			</g>
		</g>
		<g id="XMLID_2911_">
			<g id="XMLID_2916_">
				<g>
					<polygon fill-rule="evenodd" clip-rule="evenodd" fill="#FFDB76" points="69.343,75.453 60.733,84.082 59.062,82.42 
						67.672,73.791 					"/>
				</g>
			</g>
			<g id="XMLID_2915_">
				<polygon fill-rule="evenodd" clip-rule="evenodd" fill="#FFC550" points="68.805,74.918 60.195,83.545 59.6,82.955 
					68.21,74.326 				"/>
			</g>
			<g id="XMLID_2912_">
				<g id="XMLID_2914_">
					<path fill-rule="evenodd" clip-rule="evenodd" fill="#FFFFFF" d="M69.846,73.275c0,0-2.147,0.49-2.174,0.516l0,0l0,0l0,0
						c-0.079,0.078-0.015,0.269,0.141,0.424c0.144,0.143,0.313,0.203,0.4,0.15c-0.051,0.088,0.009,0.256,0.152,0.4
						c0.144,0.143,0.313,0.199,0.4,0.148c-0.051,0.088,0.008,0.256,0.152,0.4c0.156,0.154,0.347,0.217,0.424,0.139
						C69.37,75.426,69.846,73.275,69.846,73.275z"/>
				</g>
				<g id="XMLID_2913_">
					<polygon fill-rule="evenodd" clip-rule="evenodd" fill="#333333" points="68.809,73.521 69.606,74.314 69.846,73.275 					"/>
				</g>
			</g>
		</g>
		<g id="XMLID_2880_">
			<g id="XMLID_2883_">
				<g id="XMLID_2884_">
					<path fill="#FFDB76" d="M116.017,67.812c0.206,2.168-1.39,4.104-3.561,4.309c-2.169,0.207-4.104-1.391-4.31-3.559
						c-0.206-2.17,1.39-4.104,3.56-4.31C113.877,64.045,115.81,65.643,116.017,67.812z M109.696,68.414
						c0.125,1.316,1.297,2.285,2.613,2.16c1.316-0.127,2.284-1.299,2.159-2.615c-0.125-1.314-1.298-2.283-2.614-2.158
						C110.538,65.926,109.57,67.098,109.696,68.414z"/>
				</g>
			</g>
			<g id="XMLID_2881_">
				<g id="XMLID_2882_">
					<path fill="#FFDB76" d="M118.879,74.229c0.022,0.225-0.055,0.457-0.229,0.627c-0.306,0.303-0.798,0.297-1.1-0.008l-3.524-3.586
						c-0.3-0.309-0.296-0.801,0.01-1.102c0.306-0.301,0.799-0.295,1.1,0.01l3.523,3.588
						C118.79,73.889,118.863,74.057,118.879,74.229z"/>
				</g>
			</g>
		</g>
		<g>
			<g>
				<path fill-rule="evenodd" clip-rule="evenodd" fill="#FFDB76" d="M72.491,116.471h-0.415c-0.083,0-0.166,0-0.249,0l-3.407-3.811
					c-0.001,0-0.002,0-0.002-0.002c0.035-0.074,0.057-0.156,0.057-0.242c0-0.315-0.254-0.57-0.568-0.57
					c-0.314,0-0.568,0.256-0.568,0.57c0,0.312,0.253,0.566,0.568,0.566c0.047,0,0.092-0.008,0.136-0.02
					c0.004,0.008,0.007,0.016,0.012,0.023l3.115,3.484c-2.678-0.004-5.356-0.004-8.035,0l3.132-3.506
					c0.042,0.012,0.085,0.018,0.131,0.018c0.314,0,0.568-0.254,0.568-0.566c0-0.315-0.254-0.57-0.568-0.57
					c-0.314,0-0.568,0.256-0.568,0.57c0,0.086,0.022,0.168,0.057,0.242l-3.408,3.812c-0.083,0-0.166,0-0.249,0h-0.417
					c-1.246,0.002-1.196,1.355,0,1.355h0.417h9.844h0.415C73.687,117.826,73.739,116.473,72.491,116.471z M62.232,117.715
					c-0.314,0-0.568-0.256-0.568-0.568c0-0.314,0.254-0.568,0.568-0.568c0.047,0,0.092,0.008,0.135,0.018l-0.356,0.398
					c-0.089,0.102-0.081,0.256,0.018,0.346c0.101,0.09,0.256,0.08,0.345-0.02l0.371-0.414c0.034,0.074,0.054,0.154,0.054,0.24
					C62.8,117.459,62.546,117.715,62.232,117.715z M72.076,117.715c-0.314,0-0.569-0.256-0.569-0.568
					c0-0.086,0.021-0.166,0.055-0.24l0.37,0.414c0.09,0.1,0.244,0.109,0.345,0.02c0.1-0.09,0.108-0.244,0.019-0.346l-0.357-0.398
					c0.044-0.01,0.089-0.018,0.137-0.018c0.313,0,0.567,0.254,0.567,0.568C72.643,117.459,72.389,117.715,72.076,117.715z"/>
			</g>
			<g>
				<path fill-rule="evenodd" clip-rule="evenodd" fill="#FFDB76" d="M68.803,118.23h-1.65h-1.65h-1.633h-1.983l0.519,2.992
					c0.112,0.645,0.427,1.131,1.418,1.131h0.047h1.633h1.65h1.65h1.634h0.048c0.99,0,1.305-0.486,1.417-1.131l0.519-2.992h-1.985
					H68.803z M64.061,121.496c-0.067,0-0.132-0.016-0.191-0.047c-0.141-0.068-0.251-0.209-0.272-0.371
					c-0.047-0.34-0.093-0.682-0.14-1.023c-0.047-0.342-0.095-0.682-0.141-1.025c-0.031-0.229,0.146-0.416,0.396-0.416
					c0.054,0,0.107,0.01,0.158,0.023c0.179,0.061,0.319,0.213,0.338,0.393c0.035,0.344,0.072,0.684,0.109,1.025
					c0.036,0.342,0.071,0.684,0.107,1.023C64.448,121.309,64.285,121.496,64.061,121.496z M65.606,121.496
					c-0.035,0-0.07-0.006-0.104-0.014c-0.178-0.047-0.32-0.211-0.335-0.404c-0.026-0.34-0.051-0.682-0.077-1.023
					s-0.054-0.682-0.079-1.025c-0.019-0.229,0.172-0.416,0.421-0.416c0.024,0,0.047,0.002,0.07,0.004
					c0.218,0.031,0.392,0.205,0.401,0.412c0.015,0.344,0.031,0.684,0.046,1.025c0.015,0.342,0.03,0.684,0.045,1.023
					C66.005,121.309,65.83,121.496,65.606,121.496z M67.582,120.055c-0.005,0.342-0.011,0.684-0.017,1.023
					c-0.003,0.23-0.189,0.418-0.413,0.418h-0.001c-0.223,0-0.41-0.188-0.414-0.418c-0.006-0.34-0.01-0.682-0.016-1.023
					c-0.006-0.342-0.011-0.682-0.017-1.025c-0.004-0.229,0.197-0.416,0.446-0.416l0,0c0.249,0,0.449,0.188,0.446,0.416
					C67.593,119.373,67.588,119.713,67.582,120.055z M69.216,120.055c-0.026,0.342-0.054,0.684-0.079,1.023
					c-0.015,0.195-0.156,0.357-0.334,0.404c-0.034,0.008-0.069,0.014-0.104,0.014c-0.224,0-0.399-0.188-0.389-0.418
					c0.015-0.34,0.031-0.682,0.046-1.023c0.015-0.342,0.031-0.682,0.045-1.025c0.009-0.207,0.184-0.379,0.401-0.41
					c0.023-0.004,0.047-0.006,0.072-0.006c0.249,0,0.437,0.188,0.42,0.416C69.268,119.373,69.241,119.713,69.216,120.055z
					 M70.991,119.029c-0.046,0.344-0.094,0.684-0.141,1.025c-0.047,0.342-0.094,0.684-0.141,1.023
					c-0.022,0.162-0.132,0.303-0.273,0.371c-0.059,0.031-0.125,0.047-0.191,0.047c-0.224,0-0.388-0.188-0.364-0.418
					c0.036-0.34,0.072-0.682,0.108-1.023c0.036-0.342,0.073-0.682,0.108-1.025c0.019-0.178,0.16-0.332,0.339-0.391
					c0.051-0.016,0.104-0.025,0.159-0.025C70.845,118.613,71.023,118.801,70.991,119.029z"/>
			</g>
		</g>
		<g>
			<g id="XMLID_2879_">
				<path fill-rule="evenodd" clip-rule="evenodd" fill="#FFDB76" d="M60.922,56.898l6.561-0.383c0.93,0,1.69,0.853,1.69,1.9v3.166
					c0,1.045-0.761,1.898-1.69,1.898l-6.561-0.383c-0.93,0-1.69-0.762-1.69-1.691v-2.818C59.232,57.658,59.992,56.898,60.922,56.898
					z"/>
			</g>
			<g id="XMLID_2878_">
				<polygon fill-rule="evenodd" clip-rule="evenodd" fill="#FFFFFF" points="62.696,58.186 65.71,59.998 62.696,61.811 				"/>
			</g>
		</g>
		<g id="XMLID_2855_">
			<g id="XMLID_2877_">
				<g>
					<path fill-rule="evenodd" clip-rule="evenodd" fill="#FFDB76" d="M116.071,121.666c2.261,0,4.094,1.58,4.094,3.531
						c0,1.172-0.661,2.211-1.679,2.854l0.578,1.457l-1.413-1.049c-0.486,0.176-1.02,0.271-1.579,0.271
						c-2.262,0-4.095-1.58-4.095-3.533C111.975,123.246,113.809,121.666,116.071,121.666z"/>
				</g>
			</g>
			<g id="XMLID_2873_">
				<g id="XMLID_2876_">
					<path fill-rule="evenodd" clip-rule="evenodd" fill="#FFFFFF" d="M117.86,125.822c-0.305,0-0.554-0.25-0.554-0.555
						c0-0.305,0.249-0.555,0.554-0.555c0.307,0,0.556,0.25,0.556,0.555C118.416,125.572,118.167,125.822,117.86,125.822z"/>
				</g>
				<g id="XMLID_2875_">
					<path fill-rule="evenodd" clip-rule="evenodd" fill="#FFFFFF" d="M116.071,125.822c-0.306,0-0.555-0.25-0.555-0.555
						c0-0.305,0.25-0.555,0.555-0.555c0.305,0,0.554,0.25,0.554,0.555C116.624,125.572,116.375,125.822,116.071,125.822z"/>
				</g>
				<g id="XMLID_2874_">
					<path fill-rule="evenodd" clip-rule="evenodd" fill="#FFFFFF" d="M114.279,125.822c-0.305,0-0.555-0.25-0.555-0.555
						c0-0.305,0.25-0.555,0.555-0.555c0.306,0,0.555,0.25,0.555,0.555C114.834,125.572,114.584,125.822,114.279,125.822z"/>
				</g>
			</g>
		</g>
		<g>
			<g>
				<path fill="#333333" d="M127.335,84.043h-6.998c-0.212,0-0.384-0.172-0.384-0.383c0-0.213,0.172-0.385,0.384-0.385h6.998
					c0.212,0,0.384,0.172,0.384,0.385C127.719,83.871,127.547,84.043,127.335,84.043z"/>
			</g>
			<g>
				<path fill="#333333" d="M130.786,85.893h-4.73c-0.212,0-0.384-0.172-0.384-0.385c0-0.211,0.172-0.385,0.384-0.385h4.73
					c0.213,0,0.384,0.174,0.384,0.385C131.171,85.721,130.999,85.893,130.786,85.893z"/>
			</g>
		</g>
		<g>
			<g>
				<path fill="#333333" d="M115.094,131.826h-5.407c-0.212,0-0.384-0.172-0.384-0.385c0-0.211,0.172-0.385,0.384-0.385h5.407
					c0.212,0,0.384,0.174,0.384,0.385C115.478,131.654,115.305,131.826,115.094,131.826z"/>
			</g>
			<g>
				<path fill="#333333" d="M117.761,133.674h-3.655c-0.211,0-0.383-0.172-0.383-0.385c0-0.211,0.172-0.383,0.383-0.383h3.655
					c0.212,0,0.384,0.172,0.384,0.383C118.144,133.502,117.972,133.674,117.761,133.674z"/>
			</g>
		</g>
		<g>
			<g>
				<path fill="#333333" d="M65.573,131.248h-5.407c-0.212,0-0.384-0.172-0.384-0.385c0-0.211,0.171-0.383,0.384-0.383h5.407
					c0.212,0,0.384,0.172,0.384,0.383C65.956,131.076,65.785,131.248,65.573,131.248z"/>
			</g>
			<g>
				<path fill="#333333" d="M68.24,133.096h-3.655c-0.212,0-0.384-0.17-0.384-0.383c0-0.213,0.171-0.385,0.384-0.385h3.655
					c0.212,0,0.384,0.172,0.384,0.385C68.623,132.926,68.452,133.096,68.24,133.096z"/>
			</g>
		</g>
		<g>
			<g>
				<path fill="#333333" d="M102.47,71.6h-5.407c-0.212,0-0.384-0.172-0.384-0.385c0-0.211,0.172-0.383,0.384-0.383h5.407
					c0.212,0,0.384,0.172,0.384,0.383C102.854,71.428,102.682,71.6,102.47,71.6z"/>
			</g>
			<g>
				<path fill="#333333" d="M105.137,73.447h-3.655c-0.212,0-0.384-0.172-0.384-0.383c0-0.213,0.171-0.385,0.384-0.385h3.655
					c0.212,0,0.385,0.172,0.385,0.385C105.522,73.275,105.349,73.447,105.137,73.447z"/>
			</g>
		</g>
	</g>
</g>
</svg>
